HIERARCHY
ROOT Hips
{
  OFFSET -51.5309 100.417 251.408
  CHANNELS 6 Xposition Yposition Zposition Zrotation Xrotation Yrotation
  JOINT RightUpLeg
  {
    OFFSET -8.9458 -8.66707 0.101652
    CHANNELS 3 Zrotation Xrotation Yrotation
    JOINT RightLeg
    {
      OFFSET 0 -44.4227 1.3727
      CHANNELS 3 Zrotation Xrotation Yrotation
      JOINT RightFoot
      {
        OFFSET 0.253549 -42.0924 -1.46059
        CHANNELS 3 Zrotation Xrotation Yrotation
        JOINT RightToes
        {
          OFFSET 0.04 -4.41509 8.4991
          CHANNELS 3 Zrotation Xrotation Yrotation
          End Site
          {
            OFFSET -0.08 -0.137448 9.77979
          }
        }
      }
    }
  }
  JOINT Spine
  {
    OFFSET 0 11.8905 0
    CHANNELS 3 Zrotation Xrotation Yrotation
    JOINT Spine1
    {
      OFFSET 0 25.6574 0.127663
      CHANNELS 3 Zrotation Xrotation Yrotation
      JOINT HEad
      {
        OFFSET 0 8.73416 0.011341
        CHANNELS 3 Zrotation Xrotation Yrotation
        End Site
        {
          OFFSET -0.29 12.7742 2.51395
        }
      }
      JOINT LeftShoulder1
      {
        OFFSET 8.99 -0.362252 -0.22
        CHANNELS 3 Zrotation Xrotation Yrotation
        JOINT LeftArm
        {
          OFFSET 10.2827 -0.00338 0.322123
          CHANNELS 3 Zrotation Xrotation Yrotation
          JOINT LeftForeArm
          {
            OFFSET 32.7669 0.099144 -1.42434
            CHANNELS 3 Zrotation Xrotation Yrotation
            JOINT LeftHand
            {
              OFFSET 27.5643 0.085362 1.02216
              CHANNELS 3 Zrotation Xrotation Yrotation
              End Site
              {
                OFFSET 16.7443 -0.6 1.50291
              }
            }
          }
        }
      }
      JOINT RightShoulder
      {
        OFFSET -8.99 -0.362252 -0.22
        CHANNELS 3 Zrotation Xrotation Yrotation
        JOINT RightArm
        {
          OFFSET -10.2827 -0.00338 0.322123
          CHANNELS 3 Zrotation Xrotation Yrotation
          JOINT RightForeArm
          {
            OFFSET -32.8971 0.099144 -1.42434
            CHANNELS 3 Zrotation Xrotation Yrotation
            JOINT RightHand
            {
              OFFSET -27.4921 0.085362 1.02216
              CHANNELS 3 Zrotation Xrotation Yrotation
              End Site
              {
                OFFSET -16.6312 -0.6 1.50291
              }
            }
          }
        }
      }
    }
  }
  JOINT LeftUpLeg
  {
    OFFSET 8.9458 -8.66707 0.101652
    CHANNELS 3 Zrotation Xrotation Yrotation
    JOINT LeftLeg
    {
      OFFSET 0 -44.4227 1.3727
      CHANNELS 3 Zrotation Xrotation Yrotation
      JOINT LeftFoot
      {
        OFFSET -0.253549 -42.0924 -1.46059
        CHANNELS 3 Zrotation Xrotation Yrotation
        JOINT LeftToes
        {
          OFFSET -0.04 -4.41509 8.4991
          CHANNELS 3 Zrotation Xrotation Yrotation
          End Site
          {
            OFFSET 0.08 -0.047448 9.77979
          }
        }
      }
    }
  }
}
MOTION
Frames:	8
Frame Time:	0.0166667
-51.4217 103.072 250.987 6.85426 -0.956394 111.781 -18.9634 19.7927 9.34771 0.547084 -2.20963 6.10687 10.1511 8.83947 -2.13584 0.0462048 0.000533403 0.662642 6.25327 12.4011 5.50873 -0.03414 0.01765 8.21738e-007 -20.1384 18.6642 40.1426 -2.98177e-016 -3.23025e-016 -3.18055e-015 126.699 -73.7249 154.982 -102.127 57.049 -43.5388 7.12607 17.4863 1.45892 21.1738 11.3522 1.02381 71.7742 -16.1102 68.883 53.703 55.3508 73.9346 -5.77525 20.334 1.64558 9.55131 -20.9673 13.7001 11.0001 33.3965 -12.4253 25.8998 -14.033 5.38942 -1.17068e-009 1.56031e-007 -4.88294e-009 
-51.5024 102.15 251.348 7.17242 -1.22601 111.647 -18.2255 19.8098 7.0052 0.514561 -2.44791 6.2012 5.19868 10.4635 -2.05306 0.0462048 0.000533403 0.662642 5.79427 12.6118 5.85214 -0.0358002 0.01734 -0.00930914 -18.7553 18.6457 39.7232 -4.96962e-016 4.96962e-017 6.36111e-015 121.261 -74.9354 151.295 -96.4701 56.7207 -48.757 9.96989 14.4861 6.4035 15.1894 12.5484 0.748333 79.6714 -15.9399 70.429 55.8836 53.5914 70.5637 -3.23611 20.8913 3.448 10.482 -20.5826 13.3087 9.99448 33.4472 -10.0867 25.7865 -14.7415 5.51276 -1.17068e-009 1.56031e-007 -4.88293e-009 
-51.5423 101.288 251.49 7.84553 -1.22729 110.917 -17.9523 19.8942 5.19332 0.439369 -2.68675 5.51501 1.21397 12.6433 -1.94742 0.0462048 0.000533403 0.662642 4.68747 13.3021 6.54482 -0.0315104 0.01598 -0.0190492 -17.2698 18.4486 39.1785 -2.3173e-031 -2.08724e-015 -6.36111e-015 91.38 -77.2022 122.967 -88.8058 55.5104 -56.0009 12.5282 11.2902 12.4081 7.8138 13.5459 -0.40529 89.7969 -14.9465 71.7978 57.8679 51.7453 66.89 0.0335621 21.3818 5.68624 11.4689 -19.569 13.0918 8.57705 33.6414 -6.63074 25.5473 -15.4626 5.60435 -1.17068e-009 1.56031e-007 -4.88293e-009 
-51.5309 100.417 251.408 9.31477 -0.823128 108.134 -19.0106 19.7625 4.94317 0.23626 -2.97615 2.14134 3.65454 16.4238 -2.78868 0.0462048 0.000533403 0.662642 1.82672 15.1279 8.16189 -0.0750819 0.0502601 -0.0799182 -15.6757 17.442 38.6589 -5.51738e-032 9.93923e-016 3.18055e-015 63.904 -76.531 95.8048 -74.052 47.8256 -67.0416 11.9604 5.81503 19.3102 0.294335 12.5087 -7.16664 101.535 -10.3138 70.4815 58.38 50.3201 63.8726 7.37672 38.5979 -1.38129 12.9529 -16.8844 13.6661 6.17498 34.4401 0.0964378 24.7366 -15.9643 5.53114 -1.17067e-009 1.56031e-007 -4.88294e-009 
-51.4979 99.4739 251.114 11.3187 -0.428487 103.639 -20.3154 19.1048 5.64327 -0.0116992 -3.22183 -2.1944 3.15548 20.9764 -3.39401 0.0462048 0.000533403 0.662642 -2.19104 17.3665 10.3902 -0.0478221 0.04805 -0.0885189 -14.3391 15.8639 38.3151 -1.59028e-015 -7.95139e-016 6.36111e-015 39.6734 -73.4493 72.3718 -62.4548 35.7807 -74.1879 6.48465 -0.528304 22.9592 -1.7194 10.5485 -15.836 108.277 -6.59621 67.0801 57.7544 49.9433 61.9107 7.75015 20.3217 9.721 14.851 -13.0568 14.6353 2.38209 35.7583 9.66233 23.5191 -16.245 5.29106 -1.17067e-009 1.56031e-007 -4.88294e-009 
-51.4732 98.5551 250.617 13.6717 -0.358775 97.7157 -26.7199 7.96632 8.93749 12.5485 14.5371 -10.7361 -0.932857 16.4377 -3.11774 0.0462048 0.000533403 0.662642 -6.9078 19.3943 13.0632 -0.0257521 0.03777 -0.0898194 -13.284 13.8983 38.2186 -1.59028e-015 3.18055e-015 3.18055e-015 23.4293 -68.7601 56.6806 -55.8926 20.5807 -76.1505 -6.32018 -8.34966 24.4336 0.338639 9.6085 -12.8106 112.487 -14.254 69.2253 56.4052 50.842 61.3285 11.2028 40.4697 3.83806 16.9635 -8.3507 15.6928 -2.99597 37.2715 21.5216 21.9523 -16.2665 4.8837 -1.17067e-009 1.56031e-007 -4.88293e-009 
-51.4831 97.582 249.946 16.1874 -0.835508 90.6143 -30.2886 0.548315 11.0043 20.9602 22.5752 -20.078 -3.49869 16.5002 -2.9391 0.0462048 0.000533403 0.662642 -11.9316 20.8223 16.0278 -0.0106423 0.0356852 -0.0780598 -12.4768 11.6803 38.2701 1.59028e-015 1.98785e-015 -0 11.857 -64.0678 44.6423 -52.9448 5.15862 -73.6897 -25.8756 -9.23784 17.405 2.58419 8.65157 -9.04337 117.017 -21.8488 72.5749 63.5497 52.6475 55.2822 7.38766 24.2399 6.26292 19.012 -3.09273 16.6893 -9.65797 38.8357 34.753 19.8921 -16.0189 4.35859 -1.17068e-009 1.56031e-007 -4.88293e-009 
-51.5924 96.6948 249.162 18.3221 -1.45417 84.4833 -33.2571 -5.77392 10.7494 28.6995 27.7115 -29.513 -5.5821 17.8062 -2.82229 0.0462048 0.000533403 0.662642 -16.6141 21.5927 16.9871 -0.00233563 0.0347545 -0.06056 -11.8299 9.37187 38.3657 -0 -7.95139e-016 -0 3.92976 -59.8715 34.7729 -52.1781 -6.60738 -69.144 -37.0462 -4.80877 13.3706 10.3394 5.59476 -14.6591 112.042 -17.5415 69.2667 68.9677 53.7713 50.2987 12.36 29.4246 9.07116 20.5999 1.31257 15.7554 -17.3981 38.9499 48.1147 18.2258 -15.9632 3.93183 -1.17069e-009 1.56031e-007 -4.88294e-009 
